<?xml version="1.0" encoding="UTF-8"?>
<svg xmlns="http://www.w3.org/2000/svg" xmlns:xlink="http://www.w3.org/1999/xlink" width="400px" height="554px" viewBox="0 0 400 553" version="1.1">
<g id="surface1">
<path style=" stroke:none;fill-rule:nonzero;fill:rgb(0%,0%,0%);fill-opacity:1;" d="M 257.640625 29.882812 L 257.8125 59.242188 L 328.589844 59.414062 L 399.304688 59.53125 L 399.304688 43.347656 L 352.429688 43.347656 L 352.429688 34.679688 L 399.304688 34.679688 L 399.304688 0.578125 L 257.523438 0.578125 Z M 257.640625 29.882812 "/>
<path style=" stroke:none;fill-rule:nonzero;fill:rgb(0%,0%,0%);fill-opacity:1;" d="M 0.40625 73.804688 C 0.171875 73.980469 0 181.828125 0 313.375 L 0 552.539062 L 72.339844 552.539062 C 112.152344 552.539062 144.734375 552.480469 144.792969 552.363281 C 144.90625 552.304688 145.082031 508.4375 145.253906 454.859375 C 145.429688 393.480469 145.777344 357.472656 146.121094 357.53125 C 146.410156 357.589844 175.519531 401.457031 210.820312 455.09375 L 275.058594 552.539062 L 311.054688 552.539062 C 330.84375 552.539062 358.796875 552.710938 373.148438 552.941406 L 399.304688 553.289062 L 399.304688 544.445312 L 353.007812 544.445312 L 353.007812 536.414062 L 370.660156 525.257812 C 380.324219 519.132812 388.308594 513.929688 388.308594 513.640625 C 388.308594 513.410156 380.382812 513.234375 370.660156 513.234375 L 353.007812 513.234375 L 353.007812 506.300781 L 399.304688 506.300781 L 399.304688 477.113281 L 397.917969 479.195312 C 396.121094 481.792969 393.230469 483.992188 389.003906 485.957031 C 386.226562 487.226562 384.722656 487.515625 379.28125 487.691406 C 369.328125 488.035156 363.019531 485.722656 357.640625 479.886719 C 354.28125 476.1875 353.007812 472.777344 353.007812 467.289062 C 353.007812 461.335938 354.222656 457.808594 357.582031 454.167969 C 360.9375 450.46875 364.757812 448.273438 369.847656 447.058594 C 379.859375 444.746094 389.929688 447.175781 396.296875 453.472656 L 399.304688 456.535156 L 399.304688 425.382812 L 353.007812 425.382812 L 353.007812 417.292969 L 399.304688 417.292969 L 399.304688 391.863281 L 397.222656 394.117188 C 396.121094 395.386719 393.808594 397.121094 392.1875 397.929688 L 389.179688 399.433594 L 388.484375 397.699219 C 388.078125 396.773438 387.617188 394.984375 387.441406 393.769531 C 387.09375 391.632812 387.210938 391.515625 389.582031 390.417969 C 397.046875 386.949219 396.46875 371.75 388.832031 371.519531 C 385.765625 371.402344 384.027344 373.886719 382.523438 380.648438 C 380.496094 389.839844 379.746094 392.152344 377.777344 395.097656 C 375.289062 398.742188 371.875 400.53125 367.535156 400.53125 C 361.804688 400.472656 357.292969 397.410156 354.628906 391.574219 C 353.472656 389.03125 353.296875 387.757812 353.296875 381.460938 C 353.296875 374.640625 353.414062 374.0625 354.976562 370.882812 C 355.902344 369.03125 357.8125 366.488281 359.257812 365.21875 C 361.980469 362.675781 366.78125 360.246094 367.417969 361.058594 C 367.882812 361.519531 369.328125 367.644531 369.097656 367.875 C 368.980469 367.992188 367.824219 368.570312 366.492188 369.265625 C 362.210938 371.402344 359.953125 375.621094 359.953125 381.402344 C 359.953125 388.105469 362.441406 391.863281 366.839844 391.863281 C 370.542969 391.863281 371.816406 389.898438 374.132812 380.359375 C 375.289062 375.796875 376.679688 371.171875 377.257812 370.015625 C 381.078125 362.617188 390.742188 360.941406 396.757812 366.664062 L 399.304688 369.148438 L 399.304688 337.996094 L 396.992188 340.308594 C 394.675781 342.792969 390.453125 345.277344 389.351562 344.929688 C 389.003906 344.816406 388.253906 343.082031 387.730469 341.117188 L 386.746094 337.589844 L 388.597656 336.957031 C 393.402344 335.394531 396.121094 328.75 394.386719 322.796875 C 393.054688 318.171875 389.816406 316.148438 386.515625 317.882812 C 384.839844 318.808594 383.796875 321.292969 381.945312 329.269531 C 380.960938 333.3125 379.628906 337.765625 378.992188 339.09375 C 377.257812 342.675781 373.957031 345.394531 370.429688 346.144531 C 364.0625 347.472656 358.160156 344.527344 355.035156 338.402344 C 353.355469 335.164062 353.296875 334.703125 353.296875 327.765625 C 353.296875 321.464844 353.472656 320.136719 354.570312 317.710938 C 356.480469 313.605469 358.855469 310.890625 362.382812 308.808594 C 367.1875 305.917969 367.59375 306.035156 368.402344 310.078125 C 368.808594 311.988281 369.15625 313.664062 369.214844 313.835938 C 369.214844 314.066406 368.34375 314.53125 367.246094 314.878906 C 364.699219 315.800781 361.34375 319.5 360.589844 322.332031 C 359.605469 325.859375 359.839844 331.175781 361.109375 333.949219 C 363.195312 338.515625 368.632812 339.324219 371.296875 335.394531 C 371.992188 334.355469 373.089844 331.003906 373.785156 327.882812 C 376.503906 315.800781 377.953125 313.027344 382.582031 310.714844 C 388.253906 307.941406 394.90625 309.269531 398.03125 313.835938 L 399.304688 315.742188 L 399.304688 288.40625 L 392.941406 288.40625 L 392.941406 264.132812 L 380.785156 264.132812 L 380.785156 283.78125 L 373.84375 283.78125 L 373.84375 264.132812 L 359.953125 264.132812 L 359.953125 289.5625 L 353.007812 289.5625 L 353.007812 256.039062 L 399.304688 256.039062 L 399.304688 241.128906 C 399.246094 227.257812 399.191406 226.390625 398.320312 228.007812 C 393.519531 237.199219 381.714844 238.179688 375.636719 229.972656 L 373.667969 227.316406 L 364.46875 231.535156 C 351.792969 237.371094 353.007812 237.257812 353.007812 232.167969 L 353.007812 227.949219 L 362.441406 223.617188 L 371.816406 219.339844 L 371.992188 213.097656 L 372.164062 206.914062 L 353.007812 206.914062 L 353.007812 199.398438 L 399.304688 199.398438 L 399.304688 169.054688 L 398.089844 171.539062 C 393.808594 180.152344 381.480469 181.597656 375 174.199219 C 371.933594 170.675781 371.355469 168.652344 371.066406 160.210938 L 370.832031 152.582031 L 353.007812 152.582031 L 353.007812 143.914062 L 399.304688 143.914062 L 399.304688 127.730469 L 353.007812 127.730469 L 353.007812 119.640625 L 369.617188 119.640625 C 379.746094 119.640625 385.996094 119.410156 385.648438 119.121094 C 385.359375 118.832031 377.953125 115.710938 369.214844 112.242188 L 353.296875 105.882812 L 353.296875 99.871094 L 369.964844 93.109375 L 386.691406 86.40625 L 369.847656 86.234375 L 353.007812 86.117188 L 353.007812 78.605469 L 399.304688 78.605469 L 399.304688 73.402344 L 328.589844 73.515625 L 257.8125 73.691406 L 257.640625 167.148438 C 257.582031 218.585938 257.347656 260.664062 257.058594 260.664062 C 256.828125 260.664062 228.589844 218.53125 194.269531 167.03125 L 131.886719 73.402344 L 66.320312 73.402344 C 30.265625 73.402344 0.578125 73.574219 0.40625 73.804688 Z M 198.84375 298.925781 L 315.105469 463.183594 L 315.277344 298.925781 L 315.394531 134.667969 L 331.019531 134.667969 L 331.019531 494.164062 L 315.507812 494.164062 L 196.992188 327.015625 C 131.769531 235.117188 77.953125 159.347656 77.429688 158.710938 C 76.503906 157.554688 76.445312 166.6875 76.390625 325.511719 L 76.390625 493.585938 L 60.765625 493.585938 L 60.765625 134.667969 L 82.582031 134.667969 Z M 198.84375 298.925781 "/>
<path style=" stroke:none;fill-rule:nonzero;fill:rgb(0%,0%,0%);fill-opacity:1;" d="M 382.234375 96.808594 C 367.941406 102.589844 366.203125 103.457031 367.476562 103.917969 C 368.285156 104.265625 375.519531 107.15625 383.621094 110.335938 C 391.722656 113.570312 398.554688 116.171875 398.84375 116.171875 C 399.074219 116.171875 399.304688 110.335938 399.304688 103.167969 C 399.304688 96 399.132812 90.164062 398.902344 90.164062 C 398.609375 90.222656 391.144531 93.167969 382.234375 96.808594 Z M 382.234375 96.808594 "/>
<path style=" stroke:none;fill-rule:nonzero;fill:rgb(0%,0%,0%);fill-opacity:1;" d="M 377.894531 158.363281 C 377.894531 164.835938 378.589844 167.320312 381.078125 169.230469 C 382.984375 170.730469 386.980469 170.90625 389.46875 169.632812 C 392.304688 168.1875 392.941406 166.164062 392.941406 158.941406 L 392.941406 152.582031 L 377.894531 152.582031 Z M 377.894531 158.363281 "/>
<path style=" stroke:none;fill-rule:nonzero;fill:rgb(0%,0%,0%);fill-opacity:1;" d="M 379.457031 207.257812 C 378.703125 208.070312 378.992188 220.726562 379.859375 222.75 C 381.769531 227.257812 387.382812 228.703125 390.625 225.523438 C 392.59375 223.5 393.054688 220.957031 392.824219 212.980469 L 392.652344 207.203125 L 386.226562 207.027344 C 382.753906 206.96875 379.6875 207.085938 379.457031 207.257812 Z M 379.457031 207.257812 "/>
<path style=" stroke:none;fill-rule:nonzero;fill:rgb(0%,0%,0%);fill-opacity:1;" d="M 370.777344 455.4375 C 363.890625 457.171875 359.78125 461.625 359.78125 467.289062 C 359.78125 472.429688 362.441406 475.667969 368.460938 478.039062 C 373.207031 479.828125 382.003906 479.828125 386.691406 478.039062 C 394.90625 474.859375 397.683594 465.726562 392.1875 460.0625 C 389.003906 456.769531 384.839844 455.265625 378.53125 455.09375 C 375.464844 454.976562 371.992188 455.148438 370.777344 455.4375 Z M 370.777344 455.4375 "/>
<path style=" stroke:none;fill-rule:nonzero;fill:rgb(0%,0%,0%);fill-opacity:1;" d="M 382.871094 526.585938 L 366.722656 536.933594 L 399.304688 536.933594 L 399.304688 526.527344 C 399.304688 520.808594 399.246094 516.125 399.191406 516.183594 C 399.074219 516.183594 391.722656 520.863281 382.871094 526.585938 Z M 382.871094 526.585938 "/>
</g>
</svg>
